<mxfile host="app.diagrams.net" agent="Mozilla/5.0 (Windows NT 10.0; Win64; x64) AppleWebKit/537.36 (KHTML, like Gecko) Chrome/131.0.0.0 Safari/537.36" version="26.0.6">
  <diagram id="ROn9mO5n3ff-VIjy4hpl" name="Page-1">
    <mxGraphModel dx="1764" dy="991" grid="1" gridSize="10" guides="1" tooltips="1" connect="1" arrows="1" fold="1" page="1" pageScale="1" pageWidth="850" pageHeight="1100" background="light-dark(#ffffff, #121212)" math="0" shadow="0">
      <root>
        <mxCell id="0" />
        <mxCell id="1" parent="0" />
        <mxCell id="tpNs3KqN-CZfR7yVnbti-1" value="Admin Log in" style="whiteSpace=wrap;strokeWidth=2;" parent="1" vertex="1">
          <mxGeometry x="1433" y="20" width="153" height="54" as="geometry" />
        </mxCell>
        <mxCell id="tpNs3KqN-CZfR7yVnbti-2" value="Auth (Gateway MS)" style="whiteSpace=wrap;strokeWidth=2;fillColor=#e1d5e7;strokeColor=#9673a6;" parent="1" vertex="1">
          <mxGeometry x="1418" y="124" width="184" height="54" as="geometry" />
        </mxCell>
        <mxCell id="tpNs3KqN-CZfR7yVnbti-3" value="User Log in" style="whiteSpace=wrap;strokeWidth=2;" parent="1" vertex="1">
          <mxGeometry x="2480" y="20" width="139" height="54" as="geometry" />
        </mxCell>
        <mxCell id="tpNs3KqN-CZfR7yVnbti-4" value="Auth (Gateway MS)" style="whiteSpace=wrap;strokeWidth=2;fillColor=#e1d5e7;strokeColor=#9673a6;" parent="1" vertex="1">
          <mxGeometry x="2458" y="124" width="184" height="54" as="geometry" />
        </mxCell>
        <mxCell id="tpNs3KqN-CZfR7yVnbti-5" value="Admin Dashboard" style="whiteSpace=wrap;strokeWidth=2;" parent="1" vertex="1">
          <mxGeometry x="1417" y="251" width="184" height="54" as="geometry" />
        </mxCell>
        <mxCell id="tpNs3KqN-CZfR7yVnbti-6" value="User Dashboard" style="whiteSpace=wrap;strokeWidth=2;" parent="1" vertex="1">
          <mxGeometry x="2464" y="251" width="171" height="54" as="geometry" />
        </mxCell>
        <mxCell id="tpNs3KqN-CZfR7yVnbti-7" value="Manage Users" style="whiteSpace=wrap;strokeWidth=2;" parent="1" vertex="1">
          <mxGeometry x="470" y="355" width="157" height="54" as="geometry" />
        </mxCell>
        <mxCell id="tpNs3KqN-CZfR7yVnbti-8" value="Manage Accounts" style="whiteSpace=wrap;strokeWidth=2;" parent="1" vertex="1">
          <mxGeometry x="1176" y="355" width="182" height="54" as="geometry" />
        </mxCell>
        <mxCell id="tpNs3KqN-CZfR7yVnbti-9" value="Deposit Money" style="whiteSpace=wrap;strokeWidth=2;" parent="1" vertex="1">
          <mxGeometry x="1650" y="390" width="164" height="54" as="geometry" />
        </mxCell>
        <mxCell id="tpNs3KqN-CZfR7yVnbti-11" value="View/Update Profile" style="whiteSpace=wrap;strokeWidth=2;" parent="1" vertex="1">
          <mxGeometry x="1980" y="355" width="206" height="54" as="geometry" />
        </mxCell>
        <mxCell id="tpNs3KqN-CZfR7yVnbti-12" value="Withdraw Money" style="whiteSpace=wrap;strokeWidth=2;" parent="1" vertex="1">
          <mxGeometry x="2236" y="355" width="179" height="54" as="geometry" />
        </mxCell>
        <mxCell id="tpNs3KqN-CZfR7yVnbti-13" value="Fund Transfer" style="whiteSpace=wrap;strokeWidth=2;" parent="1" vertex="1">
          <mxGeometry x="2535" y="355" width="158" height="54" as="geometry" />
        </mxCell>
        <mxCell id="tpNs3KqN-CZfR7yVnbti-14" value="Transaction History" style="whiteSpace=wrap;strokeWidth=2;" parent="1" vertex="1">
          <mxGeometry x="2824" y="355" width="197" height="54" as="geometry" />
        </mxCell>
        <mxCell id="tpNs3KqN-CZfR7yVnbti-15" value="Notifications" style="whiteSpace=wrap;strokeWidth=2;" parent="1" vertex="1">
          <mxGeometry x="3155" y="355" width="151" height="54" as="geometry" />
        </mxCell>
        <mxCell id="tpNs3KqN-CZfR7yVnbti-16" value="Create User" style="whiteSpace=wrap;strokeWidth=2;" parent="1" vertex="1">
          <mxGeometry x="160" y="471" width="170" height="54" as="geometry" />
        </mxCell>
        <mxCell id="tpNs3KqN-CZfR7yVnbti-18" value="Bulk User Creation" style="whiteSpace=wrap;strokeWidth=2;" parent="1" vertex="1">
          <mxGeometry x="572" y="471" width="193" height="54" as="geometry" />
        </mxCell>
        <mxCell id="tpNs3KqN-CZfR7yVnbti-20" value="Bulk User Upload xls/csv" style="whiteSpace=wrap;strokeWidth=2;" parent="1" vertex="1">
          <mxGeometry x="550" y="570" width="237" height="54" as="geometry" />
        </mxCell>
        <mxCell id="tpNs3KqN-CZfR7yVnbti-21" value="Validate &amp; Create Users" style="whiteSpace=wrap;strokeWidth=2;" parent="1" vertex="1">
          <mxGeometry x="538.5" y="670" width="260" height="78" as="geometry" />
        </mxCell>
        <mxCell id="tpNs3KqN-CZfR7yVnbti-22" value="Create Account" style="whiteSpace=wrap;strokeWidth=2;" parent="1" vertex="1">
          <mxGeometry x="888" y="471" width="170" height="54" as="geometry" />
        </mxCell>
        <mxCell id="tpNs3KqN-CZfR7yVnbti-23" value="Update User Account" style="whiteSpace=wrap;strokeWidth=2;" parent="1" vertex="1">
          <mxGeometry x="1108" y="471" width="210" height="54" as="geometry" />
        </mxCell>
        <mxCell id="tpNs3KqN-CZfR7yVnbti-25" value="Account Closure&#xa;(Change account status)" style="whiteSpace=wrap;strokeWidth=2;" parent="1" vertex="1">
          <mxGeometry x="1200" y="624" width="176" height="54" as="geometry" />
        </mxCell>
        <mxCell id="tpNs3KqN-CZfR7yVnbti-26" value="Account MS" style="whiteSpace=wrap;strokeWidth=2;fillColor=#d5e8d4;strokeColor=#82b366;" parent="1" vertex="1">
          <mxGeometry x="1098" y="830" width="260" height="50" as="geometry" />
        </mxCell>
        <mxCell id="tpNs3KqN-CZfR7yVnbti-27" value="Admin Deposits to User Account" style="whiteSpace=wrap;strokeWidth=2;" parent="1" vertex="1">
          <mxGeometry x="1602" y="480" width="260" height="78" as="geometry" />
        </mxCell>
        <mxCell id="tpNs3KqN-CZfR7yVnbti-28" value="User Withdraws Funds" style="whiteSpace=wrap;strokeWidth=2;" parent="1" vertex="1">
          <mxGeometry x="2217" y="471" width="218" height="54" as="geometry" />
        </mxCell>
        <mxCell id="tpNs3KqN-CZfR7yVnbti-29" value="User Initiates Fund Transfer" style="whiteSpace=wrap;strokeWidth=2;" parent="1" vertex="1">
          <mxGeometry x="2485" y="471" width="258" height="54" as="geometry" />
        </mxCell>
        <mxCell id="tpNs3KqN-CZfR7yVnbti-30" value="User Views Transaction History&#xa;(Can be exported to pdf/xls)" style="whiteSpace=wrap;strokeWidth=2;" parent="1" vertex="1">
          <mxGeometry x="2792" y="459" width="260" height="78" as="geometry" />
        </mxCell>
        <mxCell id="tpNs3KqN-CZfR7yVnbti-31" value="Send Notification Email" style="whiteSpace=wrap;strokeWidth=2;" parent="1" vertex="1">
          <mxGeometry x="3078" y="550" width="228" height="54" as="geometry" />
        </mxCell>
        <mxCell id="tpNs3KqN-CZfR7yVnbti-32" value="Notification MS" style="whiteSpace=wrap;strokeWidth=2;fillColor=#d5e8d4;strokeColor=#82b366;" parent="1" vertex="1">
          <mxGeometry x="3190" y="816" width="169" height="54" as="geometry" />
        </mxCell>
        <mxCell id="tpNs3KqN-CZfR7yVnbti-34" value="" style="curved=1;startArrow=none;endArrow=block;exitX=0.5;exitY=1;entryX=0.5;entryY=0;rounded=0;" parent="1" source="tpNs3KqN-CZfR7yVnbti-1" target="tpNs3KqN-CZfR7yVnbti-2" edge="1">
          <mxGeometry relative="1" as="geometry">
            <Array as="points" />
          </mxGeometry>
        </mxCell>
        <mxCell id="tpNs3KqN-CZfR7yVnbti-35" value="" style="curved=1;startArrow=none;endArrow=block;exitX=0.5;exitY=1;entryX=0.5;entryY=0;rounded=0;" parent="1" source="tpNs3KqN-CZfR7yVnbti-3" target="tpNs3KqN-CZfR7yVnbti-4" edge="1">
          <mxGeometry relative="1" as="geometry">
            <Array as="points" />
          </mxGeometry>
        </mxCell>
        <mxCell id="tpNs3KqN-CZfR7yVnbti-36" value="Routes to Admin Dashboard" style="curved=1;startArrow=none;endArrow=block;exitX=0.5;exitY=1;entryX=0.5;entryY=-0.01;rounded=0;" parent="1" source="tpNs3KqN-CZfR7yVnbti-2" target="tpNs3KqN-CZfR7yVnbti-5" edge="1">
          <mxGeometry relative="1" as="geometry">
            <Array as="points" />
          </mxGeometry>
        </mxCell>
        <mxCell id="tpNs3KqN-CZfR7yVnbti-37" value="Routes to User Dashboard" style="curved=1;startArrow=none;endArrow=block;exitX=0.5;exitY=1;entryX=0.5;entryY=-0.01;rounded=0;" parent="1" source="tpNs3KqN-CZfR7yVnbti-4" target="tpNs3KqN-CZfR7yVnbti-6" edge="1">
          <mxGeometry relative="1" as="geometry">
            <Array as="points" />
          </mxGeometry>
        </mxCell>
        <mxCell id="tpNs3KqN-CZfR7yVnbti-38" value="" style="curved=1;startArrow=none;endArrow=block;exitX=0;exitY=0.57;entryX=0.5;entryY=-0.01;rounded=0;" parent="1" source="tpNs3KqN-CZfR7yVnbti-5" target="tpNs3KqN-CZfR7yVnbti-7" edge="1">
          <mxGeometry relative="1" as="geometry">
            <Array as="points">
              <mxPoint x="560" y="300" />
            </Array>
          </mxGeometry>
        </mxCell>
        <mxCell id="tpNs3KqN-CZfR7yVnbti-39" value="" style="curved=1;startArrow=none;endArrow=block;exitX=0;exitY=0.86;entryX=0.5;entryY=-0.01;rounded=0;" parent="1" source="tpNs3KqN-CZfR7yVnbti-5" target="tpNs3KqN-CZfR7yVnbti-8" edge="1">
          <mxGeometry relative="1" as="geometry">
            <Array as="points">
              <mxPoint x="1267" y="330" />
            </Array>
          </mxGeometry>
        </mxCell>
        <mxCell id="tpNs3KqN-CZfR7yVnbti-40" value="" style="curved=1;startArrow=none;endArrow=block;exitX=1;exitY=0.7;entryX=0.5;entryY=-0.01;rounded=0;" parent="1" source="tpNs3KqN-CZfR7yVnbti-5" target="tpNs3KqN-CZfR7yVnbti-9" edge="1">
          <mxGeometry relative="1" as="geometry">
            <Array as="points">
              <mxPoint x="1730" y="310" />
            </Array>
          </mxGeometry>
        </mxCell>
        <mxCell id="tpNs3KqN-CZfR7yVnbti-42" value="" style="curved=1;startArrow=none;endArrow=block;exitX=0;exitY=0.67;entryX=0.5;entryY=-0.01;rounded=0;" parent="1" source="tpNs3KqN-CZfR7yVnbti-6" target="tpNs3KqN-CZfR7yVnbti-11" edge="1">
          <mxGeometry relative="1" as="geometry">
            <Array as="points">
              <mxPoint x="2083" y="330" />
            </Array>
          </mxGeometry>
        </mxCell>
        <mxCell id="tpNs3KqN-CZfR7yVnbti-43" value="" style="curved=1;startArrow=none;endArrow=block;exitX=0;exitY=0.86;entryX=0.5;entryY=-0.01;rounded=0;" parent="1" source="tpNs3KqN-CZfR7yVnbti-6" target="tpNs3KqN-CZfR7yVnbti-12" edge="1">
          <mxGeometry relative="1" as="geometry">
            <Array as="points">
              <mxPoint x="2326" y="330" />
            </Array>
          </mxGeometry>
        </mxCell>
        <mxCell id="tpNs3KqN-CZfR7yVnbti-44" value="" style="curved=1;startArrow=none;endArrow=block;exitX=0.7;exitY=0.99;entryX=0.5;entryY=-0.01;rounded=0;" parent="1" source="tpNs3KqN-CZfR7yVnbti-6" target="tpNs3KqN-CZfR7yVnbti-13" edge="1">
          <mxGeometry relative="1" as="geometry">
            <Array as="points">
              <mxPoint x="2613" y="330" />
            </Array>
          </mxGeometry>
        </mxCell>
        <mxCell id="tpNs3KqN-CZfR7yVnbti-45" value="" style="curved=1;startArrow=none;endArrow=block;exitX=1;exitY=0.72;entryX=0.5;entryY=-0.01;rounded=0;" parent="1" source="tpNs3KqN-CZfR7yVnbti-6" target="tpNs3KqN-CZfR7yVnbti-14" edge="1">
          <mxGeometry relative="1" as="geometry">
            <Array as="points">
              <mxPoint x="2922" y="330" />
            </Array>
          </mxGeometry>
        </mxCell>
        <mxCell id="tpNs3KqN-CZfR7yVnbti-46" value="" style="curved=1;startArrow=none;endArrow=block;exitX=1;exitY=0.61;entryX=0.5;entryY=-0.01;rounded=0;" parent="1" source="tpNs3KqN-CZfR7yVnbti-6" target="tpNs3KqN-CZfR7yVnbti-15" edge="1">
          <mxGeometry relative="1" as="geometry">
            <Array as="points">
              <mxPoint x="3230" y="330" />
            </Array>
          </mxGeometry>
        </mxCell>
        <mxCell id="tpNs3KqN-CZfR7yVnbti-47" value="" style="curved=1;startArrow=none;endArrow=block;entryX=0.5;entryY=-0.01;rounded=0;exitX=0;exitY=0.5;exitDx=0;exitDy=0;" parent="1" source="tpNs3KqN-CZfR7yVnbti-7" target="tpNs3KqN-CZfR7yVnbti-16" edge="1">
          <mxGeometry relative="1" as="geometry">
            <Array as="points">
              <mxPoint x="310" y="410" />
            </Array>
            <mxPoint x="460" y="390" as="sourcePoint" />
          </mxGeometry>
        </mxCell>
        <mxCell id="tpNs3KqN-CZfR7yVnbti-49" value="" style="curved=1;startArrow=none;endArrow=block;exitX=1;exitY=0.5;entryX=0.669;entryY=0.059;rounded=0;entryDx=0;entryDy=0;entryPerimeter=0;exitDx=0;exitDy=0;" parent="1" source="tpNs3KqN-CZfR7yVnbti-7" target="tpNs3KqN-CZfR7yVnbti-18" edge="1">
          <mxGeometry relative="1" as="geometry">
            <Array as="points">
              <mxPoint x="700" y="420" />
            </Array>
          </mxGeometry>
        </mxCell>
        <mxCell id="tpNs3KqN-CZfR7yVnbti-50" value="" style="curved=1;startArrow=none;endArrow=block;exitX=0.5;exitY=0.99;entryX=0;entryY=0.5;rounded=0;entryDx=0;entryDy=0;" parent="1" source="tpNs3KqN-CZfR7yVnbti-16" target="tpNs3KqN-CZfR7yVnbti-74" edge="1">
          <mxGeometry relative="1" as="geometry">
            <Array as="points">
              <mxPoint x="310" y="680" />
              <mxPoint x="400" y="800" />
            </Array>
            <mxPoint x="394.41176470588243" y="662" as="targetPoint" />
          </mxGeometry>
        </mxCell>
        <mxCell id="tpNs3KqN-CZfR7yVnbti-52" value="" style="curved=1;startArrow=none;endArrow=block;exitX=0.5;exitY=0.99;entryX=0.5;entryY=-0.01;rounded=0;" parent="1" source="tpNs3KqN-CZfR7yVnbti-18" target="tpNs3KqN-CZfR7yVnbti-20" edge="1">
          <mxGeometry relative="1" as="geometry">
            <Array as="points" />
          </mxGeometry>
        </mxCell>
        <mxCell id="tpNs3KqN-CZfR7yVnbti-53" value="" style="curved=1;startArrow=none;endArrow=block;exitX=0.5;exitY=0.99;entryX=0.5;entryY=0;rounded=0;" parent="1" source="tpNs3KqN-CZfR7yVnbti-20" target="tpNs3KqN-CZfR7yVnbti-21" edge="1">
          <mxGeometry relative="1" as="geometry">
            <Array as="points" />
          </mxGeometry>
        </mxCell>
        <mxCell id="tpNs3KqN-CZfR7yVnbti-54" value="" style="curved=1;startArrow=none;endArrow=block;exitX=0;exitY=0.79;entryX=0.5;entryY=-0.01;rounded=0;" parent="1" source="tpNs3KqN-CZfR7yVnbti-8" target="tpNs3KqN-CZfR7yVnbti-22" edge="1">
          <mxGeometry relative="1" as="geometry">
            <Array as="points">
              <mxPoint x="973" y="434" />
            </Array>
          </mxGeometry>
        </mxCell>
        <mxCell id="tpNs3KqN-CZfR7yVnbti-55" value="" style="curved=1;startArrow=none;endArrow=block;exitX=0.34;exitY=0.99;entryX=0.5;entryY=-0.01;rounded=0;" parent="1" source="tpNs3KqN-CZfR7yVnbti-8" target="tpNs3KqN-CZfR7yVnbti-23" edge="1">
          <mxGeometry relative="1" as="geometry">
            <Array as="points">
              <mxPoint x="1213" y="434" />
            </Array>
          </mxGeometry>
        </mxCell>
        <mxCell id="tpNs3KqN-CZfR7yVnbti-58" value="" style="curved=1;startArrow=none;endArrow=block;exitX=0.5;exitY=0.99;entryX=0.25;entryY=0;rounded=0;entryDx=0;entryDy=0;" parent="1" source="tpNs3KqN-CZfR7yVnbti-22" target="tpNs3KqN-CZfR7yVnbti-26" edge="1">
          <mxGeometry relative="1" as="geometry">
            <Array as="points">
              <mxPoint x="973" y="562" />
              <mxPoint x="1100" y="700" />
            </Array>
          </mxGeometry>
        </mxCell>
        <mxCell id="tpNs3KqN-CZfR7yVnbti-59" value="" style="curved=1;startArrow=none;endArrow=block;exitX=0.5;exitY=0.99;rounded=0;entryX=0.5;entryY=0;entryDx=0;entryDy=0;" parent="1" source="tpNs3KqN-CZfR7yVnbti-23" target="tpNs3KqN-CZfR7yVnbti-25" edge="1">
          <mxGeometry relative="1" as="geometry">
            <Array as="points">
              <mxPoint x="1250" y="550" />
            </Array>
            <mxPoint x="1250" y="580" as="targetPoint" />
          </mxGeometry>
        </mxCell>
        <mxCell id="tpNs3KqN-CZfR7yVnbti-61" value="" style="curved=1;startArrow=none;endArrow=block;exitX=0.5;exitY=1;rounded=0;exitDx=0;exitDy=0;entryX=0.5;entryY=0;entryDx=0;entryDy=0;" parent="1" source="tpNs3KqN-CZfR7yVnbti-25" edge="1" target="tpNs3KqN-CZfR7yVnbti-26">
          <mxGeometry relative="1" as="geometry">
            <Array as="points">
              <mxPoint x="1300" y="730" />
            </Array>
            <mxPoint x="1309.9999999999995" y="604" as="sourcePoint" />
            <mxPoint x="1577" y="710" as="targetPoint" />
          </mxGeometry>
        </mxCell>
        <mxCell id="tpNs3KqN-CZfR7yVnbti-62" value="" style="curved=1;startArrow=none;endArrow=block;exitX=0.5;exitY=0.99;entryX=0.5;entryY=0;rounded=0;" parent="1" source="tpNs3KqN-CZfR7yVnbti-9" target="tpNs3KqN-CZfR7yVnbti-27" edge="1">
          <mxGeometry relative="1" as="geometry">
            <Array as="points" />
          </mxGeometry>
        </mxCell>
        <mxCell id="tpNs3KqN-CZfR7yVnbti-63" value="" style="curved=1;startArrow=none;endArrow=block;exitX=0.5;exitY=1;rounded=0;entryX=0;entryY=0.25;entryDx=0;entryDy=0;" parent="1" source="tpNs3KqN-CZfR7yVnbti-27" target="Yw5Ap8IpbwFvEhrzHZ3N-4" edge="1">
          <mxGeometry relative="1" as="geometry">
            <Array as="points">
              <mxPoint x="1820" y="790" />
            </Array>
          </mxGeometry>
        </mxCell>
        <mxCell id="tpNs3KqN-CZfR7yVnbti-64" value="" style="curved=1;startArrow=none;endArrow=block;exitX=0.5;exitY=0.99;entryX=0.5;entryY=-0.01;rounded=0;" parent="1" source="tpNs3KqN-CZfR7yVnbti-12" target="tpNs3KqN-CZfR7yVnbti-28" edge="1">
          <mxGeometry relative="1" as="geometry">
            <Array as="points" />
          </mxGeometry>
        </mxCell>
        <mxCell id="tpNs3KqN-CZfR7yVnbti-65" value="" style="curved=1;startArrow=none;endArrow=block;exitX=0.5;exitY=0.99;entryX=0.75;entryY=0;rounded=0;entryDx=0;entryDy=0;" parent="1" source="tpNs3KqN-CZfR7yVnbti-28" target="Yw5Ap8IpbwFvEhrzHZ3N-4" edge="1">
          <mxGeometry relative="1" as="geometry">
            <Array as="points" />
          </mxGeometry>
        </mxCell>
        <mxCell id="tpNs3KqN-CZfR7yVnbti-66" value="" style="curved=1;startArrow=none;endArrow=block;exitX=0.5;exitY=0.99;entryX=0.5;entryY=-0.01;rounded=0;" parent="1" source="tpNs3KqN-CZfR7yVnbti-13" target="tpNs3KqN-CZfR7yVnbti-29" edge="1">
          <mxGeometry relative="1" as="geometry">
            <Array as="points" />
          </mxGeometry>
        </mxCell>
        <mxCell id="tpNs3KqN-CZfR7yVnbti-67" value="" style="curved=1;startArrow=none;endArrow=block;exitX=0.5;exitY=0.99;entryX=0.838;entryY=-0.038;rounded=0;entryDx=0;entryDy=0;entryPerimeter=0;" parent="1" source="tpNs3KqN-CZfR7yVnbti-29" target="Yw5Ap8IpbwFvEhrzHZ3N-4" edge="1">
          <mxGeometry relative="1" as="geometry">
            <Array as="points">
              <mxPoint x="2600" y="580" />
            </Array>
          </mxGeometry>
        </mxCell>
        <mxCell id="tpNs3KqN-CZfR7yVnbti-68" value="" style="curved=1;startArrow=none;endArrow=block;exitX=0.5;exitY=0.99;entryX=0.5;entryY=0;rounded=0;" parent="1" source="tpNs3KqN-CZfR7yVnbti-14" target="tpNs3KqN-CZfR7yVnbti-30" edge="1">
          <mxGeometry relative="1" as="geometry">
            <Array as="points" />
          </mxGeometry>
        </mxCell>
        <mxCell id="tpNs3KqN-CZfR7yVnbti-69" value="" style="curved=1;startArrow=none;endArrow=block;exitX=0.5;exitY=1;entryX=1;entryY=0;rounded=0;entryDx=0;entryDy=0;" parent="1" source="tpNs3KqN-CZfR7yVnbti-30" target="Yw5Ap8IpbwFvEhrzHZ3N-4" edge="1">
          <mxGeometry relative="1" as="geometry">
            <Array as="points">
              <mxPoint x="2880" y="590" />
            </Array>
          </mxGeometry>
        </mxCell>
        <mxCell id="tpNs3KqN-CZfR7yVnbti-70" value="" style="curved=1;startArrow=none;endArrow=block;exitX=0.5;exitY=0.99;entryX=0.25;entryY=0;rounded=0;entryDx=0;entryDy=0;" parent="1" source="tpNs3KqN-CZfR7yVnbti-15" target="tpNs3KqN-CZfR7yVnbti-31" edge="1">
          <mxGeometry relative="1" as="geometry">
            <Array as="points">
              <mxPoint x="3140" y="480" />
            </Array>
          </mxGeometry>
        </mxCell>
        <mxCell id="tpNs3KqN-CZfR7yVnbti-71" value="" style="curved=1;startArrow=none;endArrow=block;exitX=0.27;exitY=0.99;entryX=0.5;entryY=-0.01;rounded=0;" parent="1" source="tpNs3KqN-CZfR7yVnbti-31" target="tpNs3KqN-CZfR7yVnbti-32" edge="1">
          <mxGeometry relative="1" as="geometry">
            <Array as="points">
              <mxPoint x="3105" y="670" />
            </Array>
          </mxGeometry>
        </mxCell>
        <mxCell id="tpNs3KqN-CZfR7yVnbti-72" value="" style="curved=1;startArrow=none;endArrow=block;exitX=0.404;exitY=1.059;entryX=0.75;entryY=0;rounded=0;entryDx=0;entryDy=0;exitDx=0;exitDy=0;exitPerimeter=0;" parent="1" source="Yw5Ap8IpbwFvEhrzHZ3N-6" edge="1" target="tpNs3KqN-CZfR7yVnbti-32">
          <mxGeometry relative="1" as="geometry">
            <Array as="points">
              <mxPoint x="3440" y="750" />
            </Array>
            <mxPoint x="3352.499999999999" y="599" as="targetPoint" />
          </mxGeometry>
        </mxCell>
        <mxCell id="tpNs3KqN-CZfR7yVnbti-74" value="User MS" style="whiteSpace=wrap;strokeWidth=2;fillColor=#d5e8d4;strokeColor=#82b366;" parent="1" vertex="1">
          <mxGeometry x="460" y="830" width="143" height="50" as="geometry" />
        </mxCell>
        <mxCell id="tpNs3KqN-CZfR7yVnbti-75" value="" style="curved=1;endArrow=classic;html=1;rounded=0;exitX=0.432;exitY=0.984;exitDx=0;exitDy=0;exitPerimeter=0;entryX=0.556;entryY=0.025;entryDx=0;entryDy=0;entryPerimeter=0;" parent="1" source="tpNs3KqN-CZfR7yVnbti-21" target="tpNs3KqN-CZfR7yVnbti-74" edge="1">
          <mxGeometry width="50" height="50" relative="1" as="geometry">
            <mxPoint x="780" y="780" as="sourcePoint" />
            <mxPoint x="830" y="730" as="targetPoint" />
            <Array as="points">
              <mxPoint x="640" y="770" />
            </Array>
          </mxGeometry>
        </mxCell>
        <mxCell id="Yw5Ap8IpbwFvEhrzHZ3N-1" value="Update User Details" style="whiteSpace=wrap;strokeWidth=2;" vertex="1" parent="1">
          <mxGeometry x="368.5" y="471" width="170" height="54" as="geometry" />
        </mxCell>
        <mxCell id="Yw5Ap8IpbwFvEhrzHZ3N-2" value="" style="curved=1;endArrow=classic;html=1;rounded=0;exitX=0.414;exitY=0.988;exitDx=0;exitDy=0;exitPerimeter=0;entryX=0.611;entryY=-0.001;entryDx=0;entryDy=0;entryPerimeter=0;" edge="1" parent="1" source="tpNs3KqN-CZfR7yVnbti-7" target="Yw5Ap8IpbwFvEhrzHZ3N-1">
          <mxGeometry width="50" height="50" relative="1" as="geometry">
            <mxPoint x="600" y="420" as="sourcePoint" />
            <mxPoint x="570" y="470" as="targetPoint" />
            <Array as="points">
              <mxPoint x="490" y="440" />
            </Array>
          </mxGeometry>
        </mxCell>
        <mxCell id="Yw5Ap8IpbwFvEhrzHZ3N-3" value="" style="curved=1;endArrow=classic;html=1;rounded=0;exitX=0.406;exitY=0.967;exitDx=0;exitDy=0;exitPerimeter=0;entryX=0.25;entryY=0;entryDx=0;entryDy=0;" edge="1" parent="1" source="Yw5Ap8IpbwFvEhrzHZ3N-1" target="tpNs3KqN-CZfR7yVnbti-74">
          <mxGeometry width="50" height="50" relative="1" as="geometry">
            <mxPoint x="470" y="525" as="sourcePoint" />
            <mxPoint x="407" y="588" as="targetPoint" />
            <Array as="points">
              <mxPoint x="425" y="557" />
            </Array>
          </mxGeometry>
        </mxCell>
        <mxCell id="Yw5Ap8IpbwFvEhrzHZ3N-4" value="Transaction MS" style="whiteSpace=wrap;strokeWidth=2;fillColor=#d5e8d4;strokeColor=#82b366;" vertex="1" parent="1">
          <mxGeometry x="2120" y="820" width="260" height="50" as="geometry" />
        </mxCell>
        <mxCell id="Yw5Ap8IpbwFvEhrzHZ3N-5" value="" style="curved=1;startArrow=none;endArrow=block;exitX=0.5;exitY=1;rounded=0;exitDx=0;exitDy=0;entryX=0.75;entryY=1;entryDx=0;entryDy=0;" edge="1" parent="1" source="tpNs3KqN-CZfR7yVnbti-11" target="tpNs3KqN-CZfR7yVnbti-74">
          <mxGeometry relative="1" as="geometry">
            <Array as="points">
              <mxPoint x="1650" y="950" />
              <mxPoint x="1130" y="980" />
              <mxPoint x="750" y="970" />
            </Array>
            <mxPoint x="2090" y="430" as="sourcePoint" />
            <mxPoint x="560" y="890" as="targetPoint" />
          </mxGeometry>
        </mxCell>
        <mxCell id="Yw5Ap8IpbwFvEhrzHZ3N-6" value="Push Notification to user (Web)" style="whiteSpace=wrap;strokeWidth=2;" vertex="1" parent="1">
          <mxGeometry x="3390" y="550" width="228" height="54" as="geometry" />
        </mxCell>
        <mxCell id="Yw5Ap8IpbwFvEhrzHZ3N-7" value="" style="curved=1;startArrow=none;endArrow=block;exitX=0.5;exitY=1;entryX=0.5;entryY=0;rounded=0;exitDx=0;exitDy=0;entryDx=0;entryDy=0;" edge="1" parent="1" source="tpNs3KqN-CZfR7yVnbti-15" target="Yw5Ap8IpbwFvEhrzHZ3N-6">
          <mxGeometry relative="1" as="geometry">
            <Array as="points">
              <mxPoint x="3426" y="481" />
            </Array>
            <mxPoint x="3450.499999999999" y="518" as="targetPoint" />
            <mxPoint x="3370" y="444" as="sourcePoint" />
          </mxGeometry>
        </mxCell>
      </root>
    </mxGraphModel>
  </diagram>
</mxfile>
